<svg xmlns="http://www.w3.org/2000/svg" aria-labelledby="title desc" role="img" viewBox="0 0 1060 420"><title id="title">妙打 logo lockup for light backgrounds</title><desc id="desc">妙打 Chinese wordmark paired with the light-background pulse microphone logo mark.</desc><defs><linearGradient id="micBody" x1="80" x2="260" y1="80" y2="330" gradientUnits="userSpaceOnUse"><stop offset="0" stop-color="#26313d"/><stop offset="1" stop-color="#101820"/></linearGradient><linearGradient id="cyanPulse" x1="58" x2="362" y1="64" y2="360" gradientUnits="userSpaceOnUse"><stop offset="0" stop-color="#06d9e8"/><stop offset="1" stop-color="#00aebd"/></linearGradient><linearGradient id="steelRing" x1="34" x2="388" y1="36" y2="388" gradientUnits="userSpaceOnUse"><stop offset="0" stop-color="#8b9baa"/><stop offset="1" stop-color="#4f6172"/></linearGradient></defs><g transform="translate(18 18) scale(.375)"><circle cx="512" cy="512" r="386" fill="none" stroke="url(#steelRing)" stroke-dasharray="514 92" stroke-linecap="butt" stroke-width="48" transform="rotate(-46 512 512)"/><circle cx="512" cy="512" r="270" fill="none" stroke="url(#cyanPulse)" stroke-dasharray="338 86" stroke-linecap="butt" stroke-width="38" transform="rotate(-44 512 512)"/><g fill="url(#micBody)"><rect width="188" height="284" x="418" y="342" rx="94"/><rect width="40" height="112" x="492" y="682" rx="2"/><rect width="132" height="34" x="446" y="786" rx="2"/></g><path fill="none" stroke="url(#micBody)" stroke-linecap="butt" stroke-width="36" d="M364 512v54c0 82 66 148 148 148s148-66 148-148v-54"/><g fill="#f7fbff"><rect width="28" height="70" x="450" y="484" rx="14"/><rect width="28" height="130" x="484" y="454" rx="14"/><rect width="28" height="190" x="518" y="426" rx="14"/><rect width="28" height="130" x="552" y="454" rx="14"/><rect width="28" height="70" x="586" y="484" rx="14"/></g></g><text x="454" y="245" fill="#111820" font-family="'PingFang SC', 'Hiragino Sans GB', 'Microsoft YaHei', -apple-system, BlinkMacSystemFont, sans-serif" font-size="146" font-weight="700" letter-spacing="0">妙打</text><text x="462" y="306" fill="#687786" font-family="-apple-system, BlinkMacSystemFont, 'SF Pro Text', 'Helvetica Neue', Arial, sans-serif" font-size="38" font-weight="560" letter-spacing="6">MuseType</text></svg>